# xmcd
#
# Track frame offsets:
# 150
# 19145
# 39617
# 53982
# 68617
# 82929
# 95580
# 111125
# 133525
# 151355
# 167347
# 181890
# 195705
# 211817
# 222885
#
# Disc length: 3179 seconds
#
#
# Revision: 0
# Processed by: cddbd v1.5.2PL0 Copyright (c) Steve Scherf et al.
# Submitted via: Nero 7, 11, 10, 0 
#
DISCID=c30c690f
DTITLE=Paul Orta - I Can't Believe My Eyes
DYEAR=1994
DGENRE=Blues
TTITLE0=I Can't Believe My Eyes
TTITLE1=T-Bone Shuffle
TTITLE2=Just Keep Loving Her
TTITLE3=Hard Hearted Woman
TTITLE4=Everything Gonna Be Alright
TTITLE5=Fannie Mae
TTITLE6=Send Me Some Loving
TTITLE7=You Know
TTITLE8=Shake Rattle N' Roll
TTITLE9=That's Alright
TTITLE10=Talking In My Sleep
TTITLE11=Let's Have Some Fun
TTITLE12=Me Quieres
TTITLE13=Let's Have A Pachanga
TTITLE14=It Really Is A Hurtin' Thing
EXTD=
EXTT0=I Can't Believe My Eyes
EXTT1=T-Bone Shuffle
EXTT2=Just Keep Loving Her
EXTT3=Hard Hearted Woman
EXTT4=Everything Gonna Be Alright
EXTT5=Fannie Mae
EXTT6=Send Me Some Loving
EXTT7=You Know
EXTT8=Shake Rattle N' Roll
EXTT9=That's Alright
EXTT10=Talking In My Sleep
EXTT11=Let's Have Some Fun
EXTT12=Me Quieres
EXTT13=Let's Have A Pachanga
EXTT14=It Really Is A Hurtin' Thing
PLAYORDER=
